<?xml version="1.0" encoding="UTF-8"?>
<svg width="500" height="500" viewBox="0 0 384 384" xmlns="http://www.w3.org/2000/svg" xml:space="preserve" version="1.1">
  <path d="m24.7 32.7c3.8 2.2 7.7 4.2 11.4 6.5 10.2 6.3 20.4 12.5 30.5 19 2.3 1.5 3.6 1.3 5.5-0.5 20.5-18.5 45-25.7 72.1-25.2 37.8 0.7 71.1 14.5 101.4 36.2 4.2 3 6.3 3.2 10.1-0.8 13.6-14.2 27.7-27.8 41.7-41.7 0.8-0.8 1.7-1.6 3.3-1.8-4.3 7.9-8.5 15.9-13 23.7-6.4 11.1-12.9 22.2-19.6 33.1-1.9 3.1-1.5 4.7 1 7.1 23.2 22.5 40.8 48.7 51.1 79.5 8.6 25.8 11.2 52 2.9 78.4-1.5 4.9-3.5 9.7-5.9 14.3-1.6 3.2-1.3 5.2 1.2 7.8 12.4 12.8 24.5 25.9 36.7 38.9 1.2 1.3 2.3 2.6 3.4 3.9-0.3 0.3-0.5 0.6-0.8 1-17.1-11.3-34.3-22.6-50.9-33.5-7.9 6.1-15.1 12.6-23.2 17.6-18.9 11.6-39.9 15.2-61.8 14.2-34-1.5-64-14.2-91.9-32.8-1.5-1-3-2.1-4.9-3.4-27.4 30.1-55.7 59-85.9 85.9-0.4-0.3-0.7-0.6-1.1-0.8 11.1-18.7 22-37.5 33.4-56 9.1-14.7 18.8-29.1 28.4-43.5 2.3-3.4 1.9-5.1-0.9-7.9-24.1-23.6-42-51.2-51.2-83.8-8.2-29.1-8.4-57.8 5.5-85.6 1.8-3.5 5.6-7.4 5-10.4-0.8-3.7-5.2-6.5-8.2-9.7-7.9-8.6-15.8-17.1-23.7-25.7-0.9-0.9-1.6-2-2.3-3 0.3-0.5 0.5-0.7 0.7-1zm274.8 215.8c0.8-1 1.3-1.4 1.6-2 0.8-1.6 1.6-3.3 2.2-5 6.2-16.5 6-33.2 2-50.1-7.8-32.6-25.7-59.2-49.3-82.4-0.9-0.9-2-1.5-3.2-2.4-0.9 1-1.6 1.7-2.1 2.5-12.4 18.1-24.7 36.3-37.2 54.4-1.9 2.7-1.3 4.1 1 6.2 23.5 21.4 46.9 42.9 70.2 64.5 5 4.7 9.8 9.4 14.8 14.3zm-113.1-103.6c15.7-17.9 31.5-36 47.5-54.3-1-0.8-1.7-1.5-2.5-2.1-22.5-15.7-46.9-27.2-74.4-30.9-19.3-2.6-38.2-1.3-55.6 8.9-3.5 2-6.6 4.7-9.8 7 31.9 24 63.1 47.5 94.8 71.4zm100.2 120c-31.6-23.9-63-47.7-94.6-71.5-14.6 18.2-29.3 36.6-44.7 55.7 8.7 5.1 16.8 10.3 25.3 14.7 25.2 13 51.7 20.4 80.3 16.1 12.5-1.9 24-6.3 33.7-15zm-208.3-172.8c-5.4 8-8.3 26.5-7 39.1 2.6 25.6 12.6 48.2 27.5 68.7 7 9.6 15 18.4 22.9 28 15-19.8 29.2-38.4 43.2-56.9-28.9-26.4-57.7-52.6-86.6-78.9z"></path>
</svg>
