<?xml version="1.0" encoding="UTF-8"?>
<svg width="500" height="500" viewBox="0 0 360 360" xmlns="http://www.w3.org/2000/svg" xml:space="preserve" version="1.1">
  <path style="fill: #FD6A1C;" d="m168.87 201.41c0.66-3.17 1.25-5.93 1.82-8.7 0.9-4.34 1.74-8.7 2.7-13.02 0.31-1.39-0.2-2.57-0.43-3.85-0.52-2.9-2.34-4.79-4.51-6.52-1.39-1.11-2.85-1.07-4.41-0.47 0.38-2.49 3.04-4.5 5.61-4.46 2.51 0.03 4.64 1.03 6.44 2.57 1.73 1.47 3.55 1.98 5.78 1.91 3.2-0.1 5.65 1.57 7.51 4.04 2.7 3.57 5.29 7.21 7.94 10.81 0.4 0.54 0.9 1 1.25 1.7-0.65-0.36-1.3-0.72-1.96-1.06-0.63-0.33-1.25-0.74-1.93-0.93-2.89-0.84-4.52 0.73-3.86 3.62 1.17 5.1 2.32 10.2 3.48 15.31 0.08 0.34 0.19 0.67 0.28 1.01 0.12 0.09 0.25 0.18 0.37 0.27 0.46-0.57 0.89-1.16 1.37-1.71 10.67-12.17 21.33-24.34 32.01-36.49 9.15-10.41 18.33-20.79 27.48-31.21 8.81-10.03 17.58-20.08 26.37-30.12 7.03-8.02 14.03-16.07 21.14-24.01 5.28-5.9 10.62-11.74 15.09-18.3 3.83-5.61 7.04-11.53 8.63-18.19 0.72-3.04 1.08-6.14 0.56-9.35 0.43 0.71 0.87 1.41 1.27 2.14 0.43 0.76 0.87 1.53 1.25 2.32 2.3 4.81 3.89 9.85 4.03 15.19 0.08 3.17-0.29 6.39-0.79 9.53-1.29 8.09-3.92 15.8-6.76 23.46-2.55 6.88-6.16 13.14-10.36 19.11-1.48 2.1-2.37 4.53-2.74 7.1-0.09 0.63-0.12 1.28-0.06 1.91 0.26 2.47 1.73 3.58 4.19 3.28 4.57-0.55 8.34-2.6 11.4-6 0.13-0.14 0.26-0.28 0.66-0.32-0.41 1.26-0.69 2.57-1.24 3.76-2.19 4.75-4.21 9.6-6.76 14.15-2.74 4.88-6.76 8.77-11.16 12.23-5.65 4.45-11.5 8.66-16.9 13.39-3.15 2.76-5.6 6.32-8.36 9.52-0.06 0.07-0.04 0.22-0.08 0.45 0.23-0.04 0.43-0.02 0.56-0.11 4.26-3.12 9.17-4.85 14.12-6.42 6.39-2.03 12.86-3.82 19.25-5.85 5.64-1.8 10.57-4.72 13.9-9.84 0.43-0.66 0.8-1.34 1.28-2.14-0.26 6.12-2.13 11.57-5.46 16.52-6.18 9.19-14.58 15.79-24.35 20.77-2.06 1.05-4.29 1.75-6.37 2.77-1.73 0.85-3.29 2-4.3 3.71-1.09 1.86-0.57 3.45 1.46 4.24 2.51 0.98 5.12 1.2 7.78 0.92 0.54-0.06 1.08-0.09 1.61-0.13 0.06 0.11 0.11 0.22 0.17 0.32-0.68 0.57-1.32 1.18-2.04 1.69-5.34 3.81-11.06 6.73-17.45 8.51-8.42 2.34-16.78 5-24.63 8.93-2.56 1.28-4.89 3.01-7.31 4.55-0.17 0.11-0.28 0.33-0.54 0.66 0.38 0 0.57 0.04 0.73 0 4.64-1.48 9.39-1.25 14.15-1.05 3.08 0.12 6.16 0.23 9.23 0.13 4.45-0.15 8.48-1.48 11.83-5.11-0.68 2.82-1.79 5.08-3.11 7.24-4.59 7.52-11.22 12.71-19.06 16.42-5.6 2.65-11.61 4.01-17.69 5.05-4.63 0.79-9.3 1.21-13.97 0.75-2.69-0.27-5.31-1.13-7.99-1.55-2.16-0.34-4.35-0.52-6.53-0.55-0.72 0-1.6 0.54-2.14 1.09-0.81 0.82-0.58 1.59 0.49 2.08 0.8 0.36 1.63 0.69 2.48 0.88 3.61 0.8 5.69 3.2 6.88 6.52 0.41 1.15 0.72 2.34 0.96 3.58-2.48-1.75-5.27-1.77-8.01-1.67-5.88 0.23-11.44-0.95-16.76-3.4-0.87-0.4-1.33-0.27-1.58 0.64-1.53 5.48-2.06 11-0.39 16.54 0.62 2.06 1.69 3.87 3.46 5.2 0.66 0.5 1.11 0.45 1.74-0.14 2.34-2.2 2.58-5.11 2.93-8.02 0.2-1.68 0.53-3.34 0.96-4.99 0.58 3.97 1.92 7.57 3.97 10.97 1.37 2.28 1.17 4.89 0.56 7.37-0.64 2.59-1.58 5.1-2.35 7.65-0.22 0.72-0.4 1.47-0.43 2.21-0.07 1.82 1.26 2.88 2.89 2.06 1.34-0.67 2.47-1.81 3.56-2.88 0.6-0.59 0.93-1.47 1.36-2.18 1.71 5.59-7.76 17.5-15.99 16.89 0.68-2.56-1.18-5.59 1.85-7.69-0.14-0.11-0.29-0.23-0.43-0.34-0.68 0.29-1.47 0.45-2.01 0.9-1.28 1.07-2.49 2.25-3.65 3.45-0.98 1.01-2.08 1.43-3.66 0.98 3.95-7.8 2.93-15.66 0.51-23.52-0.16-0.03-0.32-0.05-0.48-0.08-0.25 0.92-0.53 1.85-0.76 2.78-0.61 2.44-1.18 4.89-1.83 7.31-0.27 1-0.65 2.17-1.85 2.26-1.29 0.1-1.83-1.09-2.17-2.08s-0.45-2.1-0.5-3.16c-0.08-1.56 0.07-3.12-0.03-4.68-0.17-2.67-1.95-4.49-3.62-6.32-2.07-2.27-4.13-4.63-4.5-7.75-0.33-2.75-0.08-5.56-0.07-8.35 0-2.16 0.03-4.31 0.03-6.46 0-0.33-0.13-0.66-0.21-1-0.1 0-0.2-0.02-0.3-0.03-0.17 0.56-0.27 1.16-0.51 1.69-0.94 2.12-1.77 4.3-2.93 6.3-2.52 4.37-2.47 8.72-0.35 13.17 0.34 0.72 0.6 1.48 0.92 2.21 1.77 3.97 1.21 7.89-0.2 11.8-0.61 1.67-1.29 3.32-1.93 4.98-0.11-0.01-0.21-0.02-0.32-0.04-0.04-0.65-0.13-1.3-0.13-1.95 0.04-2.9-1.03-5.43-2.33-7.95-1.34-2.61-1.83-5.43-1.51-8.37 0.02-0.21-0.05-0.43-0.08-0.65-0.11-0.04-0.22-0.07-0.33-0.11-0.94 2-1.96 3.96-2.82 6-1.27 3-1.07 5.93 0.36 8.91 1.13 2.36 0.78 4.95 0.21 7.42-0.33 1.43-0.91 2.81-1.5 4.15-0.64 1.46-1.55 1.51-2.47 0.19-0.75-1.08-1.16-2.27-0.9-3.62 0.35-1.84 0.69-3.68 1.03-5.53 0.06-0.34 0.08-0.69 0.14-1.15-1.17 1.31-2.22 2.53-3.3 3.71-0.76 0.82-1.6 1.56-2.34 2.4-1.53 1.75-1.79 3.78-1.13 5.96 0.45 1.49 0.97 2.95 1.54 4.68-3.1-0.46-6.1-0.59-8.91-1.4-3.91-1.13-6.33-4.28-8.56-7.51-1.73-2.5-2.66-5.24-2.6-8.32 0.67 1.67 1.58 3.16 3.12 4.17 0.33 0.22 0.67 0.44 1.03 0.61 0.97 0.47 2.14 0.87 2.9 0.02 0.54-0.61 0.86-1.79 0.68-2.59-0.49-2.21-1.36-4.34-1.94-6.53-0.78-2.92-1.55-5.85-2.11-8.81-0.33-1.76 0.49-3.35 1.51-4.8 1.32-1.87 2.91-3.61 3.03-6.11 0.12 0.01 0.25 0.03 0.37 0.04 0.07 0.96 0.24 1.93 0.18 2.89-0.18 2.87-0.14 5.7 1.43 8.24 0.67 1.08 1.51 2.05 2.27 3.07 0.49 0.65 1.01 0.61 1.63 0.14 1.92-1.43 2.96-3.45 3.67-5.63 1.46-4.45 1.72-9.03 1.06-13.63-0.36-2.47-1.13-4.89-1.7-7.33-0.23-0.97-0.62-1.1-1.51-0.59-4.4 2.51-9.02 4.51-14.07 5.25-2.44 0.36-4.94 0.32-7.41 0.47-1.47 0.09-2.98 0.04-4.41 0.32-1.21 0.23-2.35 0.85-3.54 1.3 1.05-4.55 3.3-8.27 8.19-9.89 0.68-0.22 1.34-0.54 1.97-0.88 1.32-0.71 1.53-2.15 0.26-2.93-1.01-0.62-2.29-1.1-3.46-1.11-3.47-0.03-6.95 0.06-10.41 0.36-6.3 0.54-12.57 1.16-18.85-0.34-7.38-1.76-14.4-4.36-20.59-8.79-5.93-4.25-9.87-10.03-12.16-16.95-0.11-0.33-0.16-0.69-0.29-1.23 0.35 0.25 0.57 0.37 0.74 0.54 2.57 2.56 5.77 3.75 9.29 3.91 3.43 0.16 6.88 0.06 10.31-0.08 5.82-0.24 11.6-0.31 17.13 1.94 0.09 0.04 0.22-0.01 0.68-0.04-0.77-0.66-1.32-1.17-1.91-1.63-6.93-5.31-14.42-9.64-22.74-12.37-3.86-1.27-7.87-2.1-11.77-3.28-5.59-1.7-11.02-3.84-15.88-7.16-0.73-0.5-1.36-1.15-2.1-1.79 1.53 0 2.89 0.13 4.2-0.03 2.13-0.26 4.3-0.5 6.33-1.14 2.64-0.82 2.98-2.75 1.06-4.76-1.9-1.99-4.38-3.07-6.86-4.06-6.18-2.46-11.49-6.23-16.43-10.59-4.73-4.17-8.94-8.78-12.39-14.07-2.3-3.54-4.25-7.24-4.95-11.47-0.12-0.72-0.1-1.47-0.17-2.43 1.02 1.42 1.81 2.65 2.74 3.78 3.66 4.46 8.53 7.08 13.93 8.69 5.86 1.74 11.81 3.14 17.69 4.81 4.89 1.39 9.61 3.23 13.78 6.25 0.2 0.15 0.45 0.22 0.68 0.33 0.07-0.08 0.15-0.17 0.22-0.25-1.16-1.22-2.24-2.53-3.49-3.65-5.7-5.12-11.52-10.13-17.17-15.3-4.57-4.18-9.07-8.43-13.4-12.85-2.84-2.91-4.56-6.64-6.17-10.34-1.31-3-2.42-6.08-3.57-9.14-0.27-0.73-0.32-1.54-0.55-2.68 2.01 1.59 3.73 2.97 5.48 4.33 1.79 1.4 3.81 2.34 6.05 2.73 2.92 0.51 4.57-0.91 4.52-3.85-0.05-3.76-1.61-7.04-3.76-9.94-4.43-5.97-7.7-12.52-10.09-19.5-1.97-5.74-3.95-11.49-5.49-17.35-2.6-9.85-1.57-19.41 3.16-28.51 0.42-0.81 0.83-1.63 1.18-2.3 0.31 2.44 0.45 5.01 1 7.5 1.19 5.43 4.08 10.06 7.58 14.27 4.21 5.07 8.57 10.02 12.94 14.95 11.72 13.21 23.47 26.39 35.22 39.56 6.97 7.81 13.98 15.57 20.95 23.38 9.93 11.12 19.84 22.25 29.75 33.38 9.43 10.59 18.86 21.2 28.29 31.79 0.41 0.46 0.85 0.9 1.55 1.63l0.04-0.04z"></path>
  <path style="fill: #FD6A1C;" d="m76.68 226.9c2.01 1.57 3.61 3.03 5.41 4.18 2.35 1.5 4.8 2.86 7.32 4.04 1.19 0.55 1.53 1.3 1.71 2.43 0.86 5.54 2.3 10.95 4.21 16.21 3.1 8.53 7.31 16.49 12.72 23.8 7.87 10.63 17.54 19.21 29.07 25.66 7.93 4.44 16.37 7.54 25.29 9.34 10.74 2.18 21.5 2.38 32.3 0.53 18.62-3.19 34.54-11.6 47.97-24.82 7.48-7.36 13.47-15.79 18.06-25.21 3.98-8.17 6.78-16.72 8.21-25.71 0.08-0.51 0.45-1.18 0.88-1.41 4.69-2.48 9-5.49 12.86-9.13 0.08-0.07 0.2-0.11 0.55-0.29-0.15 2.29-0.22 4.42-0.45 6.53-1 9.34-3.15 18.43-6.49 27.21-3.57 9.39-8.4 18.11-14.43 26.15-4.5 6-9.57 11.48-15.23 16.38-6.66 5.78-13.95 10.64-21.88 14.55-8.44 4.17-17.27 7.15-26.52 8.81-9.61 1.72-19.27 2.27-29.01 1.13-10.39-1.22-20.42-3.78-29.98-8.04-10.26-4.57-19.55-10.61-27.84-18.22-7.86-7.21-14.51-15.38-19.92-24.56-7.29-12.38-11.84-25.73-13.85-39.94-0.43-3.08-0.63-6.19-0.98-9.61l0.02-0.01z"></path>
  <path style="fill: #FD6A1C;" d="m117.54 136.98c34.83-28.75 90.44-29.98 127.58 2.05-2.89 3.28-5.78 6.57-8.72 9.91-16-12.9-34.17-19.87-54.65-20.28-20.5-0.41-38.92 5.85-55.42 18.15-2.95-3.3-5.86-6.56-8.78-9.83h-0.01z"></path>
</svg>
