<?xml version="1.0" encoding="UTF-8"?>
<svg width="500" height="500" viewBox="0 0 2700 2700" xmlns="http://www.w3.org/2000/svg" xml:space="preserve" version="1.1">
  <path d="m1349.9 62.4c-108.4 0-212.4 43.1-289.1 119.7-76.7 76.7-119.7 180.6-119.7 289.1 0.1 46.6 8.2 92.8 23.9 136.6l216.2 1233.1c0 93.1 75.5 168.6 168.6 168.6s168.6-75.5 168.6-168.6l216.3-1233.5c15.6-43.7 23.7-89.8 23.9-136.2 0-108.4-43.1-212.4-119.7-289.1-76.6-76.6-180.6-119.7-289-119.7zm0 2083.9c-65.6 0-128.5 26.1-174.9 72.4-46.4 46.4-72.4 109.3-72.4 174.9 0 136.6 110.7 247.3 247.3 247.3s247.3-110.7 247.3-247.3c0-65.6-26.1-128.5-72.4-174.9-46.4-46.4-109.3-72.4-174.9-72.4z"/>
</svg>
