<?xml version="1.0" encoding="UTF-8"?>
<svg width="500" height="500" viewBox="0 0 442.08 443.25" xmlns="http://www.w3.org/2000/svg" xml:space="preserve" version="1.1">
  <path style="fill:#E9AF0C;" d="m373.53,153.07l-14.41,14.41-84.52-84.52,14.41-14.41L220.46,0l-68.56,68.55,13.56,13.56-84.09,84.08-12.82-12.82L0,221.92l68.55,68.56,13.35-13.35,84.22,84.23-13.34,13.34,68.55,68.55,68.55-68.55-15.07-15.07,84.09-84.08,14.63,14.63,68.55-68.55-68.55-68.56Zm-153.62,217.33L72.07,222.57,219.91,74.74l147.83,147.83-147.83,147.83Z"></path>
  <rect style="fill:#C08305;" x="141.4" y="144.07" width="157.01" height="157.01" transform="translate(-92.97 220.69) rotate(-45)"></rect>
  <path style="fill:#FFE900;" d="m219.91,62.33c-13.27,0-26,5.07-35.39,14.07-9.39,9.02-14.65,21.24-14.65,33.99.01,5.48,1,10.91,2.93,16.06l26.46,144.99c0,10.95,9.24,19.82,20.64,19.82s20.64-8.88,20.64-19.82l26.48-145.04c1.91-5.14,2.9-10.56,2.93-16.01,0-12.75-5.28-24.97-14.65-33.99-9.38-9.01-22.11-14.07-35.38-14.07h0Z"></path>
  <path style="fill:#FFE900;" d="m219.91,313.64c-10.79,0-21.13,4.29-28.77,11.91-7.63,7.63-11.91,17.98-11.91,28.77,0,22.47,18.21,40.67,40.67,40.67s40.67-18.21,40.67-40.67c0-10.79-4.29-21.13-11.91-28.77-7.63-7.63-17.98-11.91-28.77-11.91Z"></path>
</svg>
