<?xml version="1.0" encoding="UTF-8"?>
<svg width="500" height="500" viewBox="0 0 500 500" xmlns="http://www.w3.org/2000/svg" xml:space="preserve" version="1.1">
  <path d="m319.5 350.1h65.5c2 0 4 0 5.9 0.5 4.8 1.2 7.5 5.1 7.3 10-0.2 4.5-3.2 8.2-7.7 9.3-2.7 0.7-5.6 1-8.2 1.9-8.9 3-13.3 9-13.3 18.3-0.1 17.7 0.2 35.3-0.2 53-0.1 3.7-1.6 8-3.9 10.8-18.7 23.2-43.5 35.6-72.5 40.3-35.9 5.8-71.1 3.4-105.1-9.9-45.4-17.9-74.3-51.2-88.2-97.5-10.4-34.7-13.1-70-4.1-105.5 14.9-59.4 68.3-104.9 129.1-110.5 28.6-2.6 56.6 0.6 83.8 9.5 15.9 5.2 32 7.4 48.6 7.6 9.4 0.1 12.5 3.4 12.5 12.8v87c0 7.4-4.3 11.9-10.7 11.5-5-0.3-8-3.4-9.3-9.5-4.8-21.9-14.9-40.8-32.6-54.6-22.6-17.6-48.3-25.2-76.9-18.9-23.9 5.2-39.6 21-50.2 42.2-12.8 25.7-16.8 53.1-13.6 81.6 2.7 24.2 8.2 47.5 19.5 69.3 8.9 17.1 20.6 31.6 38.9 39.3 15.1 6.4 30.4 6.5 45.7 0.3 3.2-1.3 4.5-2.9 4.5-6.5-0.2-14.5-0.4-29 0-43.5 0.2-7.9-2.7-14-9.1-17.7-6.8-4-14.3-6.8-21.6-10-1.2-0.5-2.6-0.6-3.9-1-5.9-1.6-9.2-5.9-8.6-11.1 0.7-5.2 4.9-8.8 11-8.8 8.8-0.1 17.7 0 26.5 0 13.6-0.2 27.3-0.2 40.9-0.2z"/>
  <path d="m74.4 144.9c3.1 1.9 6 3.9 9.2 5.6 5.5 3 7.7 7.7 5.9 12.7-1.8 5.1-6.6 7.6-12.5 6.3-14-2.9-27.8-6.6-40.5-13.5-20-10.8-21.5-28.3-3.5-42.3 14.1-10.9 30.5-17.1 47.5-21.3 19.5-4.9 39.3-8.2 59-12.2 4.2-0.8 7.8 0.6 10.8 3.8 8.7 9.4 17.4 18.8 26.1 28.2 3.2 3.4 4.7 7.3 2.6 11.8s-5.9 5.8-10.6 6c-27.5 0.9-54.8 2.9-81.7 9-4.1 0.9-8.1 2.6-12.1 3.9-0.1 0.7-0.2 1.4-0.2 2z"/>
  <path d="m426.8 144.2c-9.7-5.3-18.9-7.1-28.1-8-22.7-2.4-45.4-4.2-68.1-6.1-4.6-0.4-8-2.1-9.8-6.4-1.8-4.2-0.5-7.8 2.4-11 8.9-9.7 17.7-19.5 26.9-28.8 2.2-2.2 6.3-3.9 9.2-3.5 31.7 3.7 62.7 10.2 91.8 23.9 6.3 2.9 12.4 6.7 17.6 11.2 4.1 3.6 7.4 8.7 9.5 13.7 3.4 8.1 0.6 15.9-6.8 21.7-10.3 8.1-22.5 12.1-34.9 15.5-4.5 1.2-9 2.3-13.6 3.2-5.9 1.3-10.7-1.2-12.5-6.3-1.7-4.9 0.4-9.5 5.5-12.4 3.4-2 6.6-4 10.9-6.7z"/>
  <path d="m315 75c0 5.2-3.9 9.3-9.4 9.9-26.5 3-42.3 18.8-45.6 45.7-0.7 5.5-4.8 9.3-10 9.3-5.4 0-9.3-4-10-9.9-1.7-16.2-9.4-28.9-22.6-38.3-6.6-4.7-14.1-6.6-22.1-6.8-6.1-0.2-10.3-4.4-10.3-10s4.2-9.6 10.4-10c23.1-1.5 42.6-20.5 44.6-43.7 0.6-7.3 4.2-11.3 10.1-11.3 5.8 0 9.4 4.1 10 11.4 2 23.1 21.4 42.1 44.6 43.6 6.1 0.5 10.3 4.6 10.3 10.1z"/>
</svg>
