<?xml version="1.0" encoding="UTF-8"?>
<svg width="500" height="500" viewBox="0 0 434.88 468.39" xmlns="http://www.w3.org/2000/svg" xml:space="preserve" version="1.1">
  <path style="fill:#5A5F64;" d="m217.44,16.74L0,234.18l217.44,217.44,217.44-217.44L217.44,16.74ZM55.99,234.18L217.44,72.73l161.45,161.45-161.45,161.45L55.99,234.18Z"></path>
  <path style="fill:#FFFFFF;" d="m217.45,361.73c-14.15,0-27.71,5.63-37.72,15.62-10,10-15.62,23.58-15.62,37.72,0,29.46,23.88,53.33,53.33,53.33s53.33-23.88,53.33-53.33c0-14.15-5.63-27.71-15.62-37.72-10-10-23.58-15.62-37.72-15.62h.03Z"></path>
  <path style="fill:#FFFFFF;" d="m217.44,0c-17.86,0-35,7.14-47.64,19.81-12.64,12.7-19.72,29.91-19.72,47.87.01,7.72,1.35,15.36,3.94,22.62l35.62,204.18c0,15.42,12.44,27.91,27.78,27.91s27.78-12.51,27.78-27.91l35.65-204.25c2.57-7.24,3.9-14.87,3.94-22.55,0-17.96-7.11-35.16-19.72-47.87C252.45,7.13,235.31,0,217.45,0h-.01Z"></path>
</svg>
