<?xml version="1.0" encoding="UTF-8"?>
<svg width="500" height="500" viewBox="0 0 500 500" xmlns="http://www.w3.org/2000/svg" xml:space="preserve" version="1.1">
  <path d="m270.9 161.9h80.1c-3.9 13.4-7.6 26.6-11.6 40.4 2.2 0.2 4 0.5 5.7 0.5 17.2 0.1 34.3 0.1 51.5 0.1 9.1 0 12.8-2.6 15.4-11.1 3.8-11.9 7.4-23.8 11.1-35.8 0.4-1.4 0.7-2.8 1.2-4.8h-265c2.9-9.8 5.6-19.1 8.4-28.2 0.3-0.9 1.8-1.7 2.9-2 1.2-0.3 2.6-0.1 4-0.1h308.9 6.5c-2.2 7.5-4.1 14.4-6.1 21.2-6.5 22.2-13.1 44.4-19.7 66.6-5.1 17.1-14.6 24.2-32.5 24.2h-94c-7.2 0-7.7 0.4-9.7 7.3-5.1 17.6-10.4 35.1-15.3 52.7-1.4 5-3.8 7.1-9.1 7-15.7-0.3-31.3-0.1-47-0.2-1.3 0-2.6-0.2-4.5-0.3 1.5-5.2 2.8-10.2 4.2-15 10-34 20-68 30.2-102 1.6-5.4 1-8.7-4.1-11.5-4.2-2.3-8-5.3-11.9-8 0.2-0.4 0.3-0.7 0.4-1z"/>
  <path d="m189.5 226.9h-123.8c0.6-2.2 1-3.9 1.5-5.6 7.9-26.8 15.7-53.7 23.9-80.4 1.4-4.7 0.3-7.5-3.7-9.9-4.4-2.6-8.6-5.7-13.9-9.2h80.7c-7.2 24.7-14.4 49.3-21.8 74.6h123.1c-0.4 1.9-0.6 3.3-1 4.6-7.2 24.6-14.4 49.2-21.7 73.8-5.3 18-14.6 25-33.6 25h-181.4c-2.1 0-4.2-0.2-7.1-0.4 1-1.6 1.5-2.8 2.2-3.7 6.4-8.3 13.1-16.4 19.1-25 4-5.8 8.8-7.5 15.6-7.5 41 0.3 82 0.2 122.9 0.2 8.3 0 8.8-0.4 11.1-8.4 2.5-9.1 5.1-18.2 7.9-28.1z"/>
  <path d="m342.9 243.3c20.1 0 39.2-0.1 58.4 0.1 2.4 0 5.5 1.2 7 2.9 14.4 16.9 28.4 34 42.6 51 0.3 0.4 0.4 0.9 0.7 1.8-1.2 0.2-2.2 0.5-3.3 0.5-16.8 0.1-33.6 0.1-50.5 0.2-7.8 0-14.3-2.8-19.1-9.1-11.4-14.9-22.8-29.9-34.2-44.9-0.5-0.4-0.8-1.1-1.6-2.5z"/>
  <path d="m243.6 393.4c-4.4-12.3-8.5-24.1-13.2-37.1-3 11.8-5.8 22-8.1 32.4-0.9 4-2.6 5-6.4 4.9-5.4-0.3-10.9-0.1-17.2-0.1 5.5-22.1 10.8-43.5 16.2-65.1h21.8c4 11.3 8.1 22.8 12.8 35.8 2-7.7 3.5-14 5.2-20.3 1.3-5.1 1.2-12.3 4.6-14.8 3.6-2.7 10.5-1 15.9-1.1h6c-2.6 10.6-5.1 20.6-7.5 30.5-2.6 10.3-5.2 20.6-7.7 31-0.7 2.9-1.8 4.2-5 4-5.8-0.3-11.6-0.1-17.4-0.1z"/>
  <path d="m111.6 392.9c1.1-4.5 2.1-8.6 3.2-12.8 4-16.1 8-32.3 12.2-48.4 0.4-1.5 2.2-3.7 3.3-3.8 21-0.2 41.9-0.2 63.3-0.2-0.2 1.6-0.4 2.9-0.6 4.1-4.7 19-9.5 38.1-14.2 57.2-0.7 3-1.8 4.4-5.2 4.4-19.3-0.2-38.6-0.1-57.9-0.1-1.3 0-2.4-0.2-4.1-0.4zm56.8-53.6c-6.1 0-11.6 0.2-17-0.1-3.4-0.2-4.6 1.2-5.3 4.3-2.4 10.5-5.1 21-7.7 31.5-0.7 2.7-1.2 5.4-2 8.8 6.7 0 12.9 0.1 18.9-0.1 1 0 2.4-1.9 2.8-3.2 1.6-5.6 3-11.2 4.4-16.9 2-7.9 3.9-15.8 5.9-24.3z"/>
  <path d="m40.3 328h22.5c-1.7 7.1-3.4 13.9-5.3 21.6 6.8 0 13 0.1 19.3-0.2 0.9 0 2.2-2.1 2.6-3.5 1.7-5.9 3.1-11.9 4.6-17.9h22c-0.1 1.3-0.1 2.4-0.3 3.4-4.8 19.2-9.7 38.4-14.4 57.7-0.8 3.1-1.9 4.5-5.3 4.3-5.9-0.3-11.9-0.1-18.4-0.1 2.7-10.7 5.1-20.7 7.8-31.5-6.9 0-13.2-0.1-19.6 0.2-0.9 0-2.1 2.3-2.5 3.7-2 7.9-4 15.8-5.7 23.8-0.7 3-2 4.1-5.1 3.9-5.9-0.2-11.9-0.1-18.5-0.1 5.6-22.1 10.9-43.5 16.3-65.3z"/>
  <path d="m422.5 327.9c3.2 22.1 6.4 43.5 9.6 65.5-7 0-13.5 0.2-19.9-0.2-1.1-0.1-2.7-3-2.8-4.8-0.2-4-1.7-5.7-5.8-5.2-2.1 0.3-4.4 0.3-6.5 0-7.1-0.9-13.1 0.2-16.2 7.8-0.4 1.1-2.2 2.2-3.4 2.2-7.1 0.2-14.2 0.1-22.2 0.1 1.2-2.2 2-3.6 2.8-4.9 12.3-19 24.6-38 36.7-57.1 1.8-2.8 3.6-3.7 6.8-3.6 6.9 0.3 13.6 0.2 20.9 0.2zm-28.7 43.5h13c-0.8-5.3-1.5-10.2-2.5-16.5-3.8 6.1-7 11-10.5 16.5z"/>
  <path d="m321 344.1c7.2-5.3 13.2-9.8 19.2-14.2 1.2-0.9 2.6-1.9 3.9-2 7.9-0.2 15.8-0.1 24 0.9-13.8 10.3-27.6 20.6-41.8 31.2 8.5 10.9 16.8 21.6 25.8 33.3-7.3 0-13.4 0.2-19.4-0.1-1.3-0.1-2.8-1.6-3.8-2.8-4.8-5.7-9.5-11.5-15-18.2-1.6 6.3-3.1 11.6-4.3 17-0.7 3.2-2.1 4.4-5.4 4.2-5.8-0.3-11.6-0.1-18-0.1 2.8-11 5.3-21.3 7.9-31.6 2.5-10.2 5-20.4 7.8-30.5 0.4-1.3 2-3.2 3.2-3.3 6.5-0.3 12.9-0.1 19.8-0.1-1.3 5.3-2.4 10.1-3.9 16.3z"/>
  <path d="m438.9 393.3c5.5-22.2 10.9-43.6 16.3-65.2h22.6c-3.3 13.3-6.6 26.3-9.8 39.4-1.9 7.4-3.6 14.9-5.7 22.2-0.4 1.3-1.7 3.4-2.6 3.5-6.7 0.3-13.5 0.1-20.8 0.1z"/>
</svg>
