<?xml version="1.0" encoding="UTF-8"?>
<svg width="512" height="512" viewBox="0 0 512 512" xmlns="http://www.w3.org/2000/svg" xml:space="preserve" version="1.1">
  <path style="fill:#43AF51;" d="M233,8.1c14.3-7.8,31.6-7.8,46,0l175.3,95.7c5.1,2.8,8.3,8.2,8.3,14s-3.2,11.2-8.3,14l-190.6,104  c-4.8,2.6-10.5,2.6-15.3,0l-190.7-104c-5.1-2.8-8.3-8.2-8.3-14s3.2-11.2,8.3-14L233,8.1z"/>
  <path style="fill:#553C2C;" d="m55.7 167.8 176 96c5.1 2.8 8.3 8.2 8.3 14v216c0 5.6-3 10.9-7.8 13.8s-10.9 3-15.8 0.3l-159.4-87.1c-15.4-8.4-25-24.5-25-42.1v-197c0-5.6 3-10.9 7.8-13.8s10.9-3 15.8-0.3l0.1 0.2z"/>
  <path style="fill:#8A6348;" d="m456.4 167.8c5-2.7 11-2.6 15.8 0.3s7.8 8.1 7.8 13.8v196.9c0 17.6-9.6 33.7-25 42.1l-159.3 86.9c-5 2.7-11 2.6-15.8-0.3s-7.8-8.1-7.8-13.8v-216c0-5.9 3.2-11.2 8.3-14l176-95.9z"/>
</svg>
