<?xml version="1.0" encoding="UTF-8"?>
<svg xmlns="http://www.w3.org/2000/svg" viewBox="0 0 495 495">
  <circle style="fill:#FDD067;" cx="247.5" cy="247.5" r="247.5"/>
  <circle style="fill:#715E2F;" cx="247.5" cy="247.5" r="190"/>
  <path style="fill:#FFF;" d="M166.8,181.76c-.18,4.26,3.13,7.87,7.39,8.05.15,0,.31,0,.46,0h26.9c4.5,0,8.09-3.68,8.67-8.15,2.93-21.39,17.61-36.98,43.76-36.98,22.37,0,42.85,11.18,42.85,38.09,0,20.71-12.2,30.23-31.47,44.7-21.94,15.94-39.32,34.56-38.09,64.79l.1,7.08c.07,4.45,3.7,8.02,8.15,8.02h26.44c4.5,0,8.15-3.65,8.15-8.15v-3.42c0-23.41,8.9-30.23,32.93-48.45,19.86-15.1,40.56-31.86,40.56-67.04,0-49.27-41.61-73.07-87.16-73.07-41.31,0-86.57,19.24-89.67,74.54"/>
  <rect style="fill:#FFF;" x="217.86" y="315.19" width="62.61" height="62.61" transform="translate(-172.03 277.67) rotate(-45)"/>
</svg>
