<?xml version="1.0" encoding="UTF-8"?>
<svg xmlns="http://www.w3.org/2000/svg" viewBox="0 0 495 495">
  <circle style="fill:#3DC197;" cx="247.5" cy="247.5" r="247.5"/>
  <circle style="fill:#316D5A;" cx="247.5" cy="247.5" r="190"/>
  <path style="fill:#FFF;" d="M212.81,380.47c1.14,5.14,5.14,9.21,10.4,10.05,7.89,1.3,16,1.98,24.29,1.98s16.4-.68,24.29-1.98c5.26-.85,9.26-4.91,10.4-10.05l5.31-23.97h-80l5.31,23.97Z"/>
  <path style="fill:#FFF;" d="M378.17,284.41l-24.23-22.34c.62-4.71.95-9.53.95-14.4s-.34-9.7-.95-14.4l24.23-22.34c3.86-3.52,5.37-9.02,3.58-13.95l.06-.06c-2.46-6.75-5.43-13.21-8.84-19.45l-2.63-4.59c-3.69-6.24-7.83-12.14-12.36-17.69-3.3-4.03-8.78-5.44-13.71-3.86l-31.16,10.04c-7.5-5.84-15.78-10.72-24.62-14.4l-6.99-32.38c-1.12-5.16-5.04-9.24-10.18-10.09-7.72-1.3-15.67-1.98-23.78-1.98s-16.06.68-23.78,2.04c-5.15.85-9.06,4.93-10.18,10.09l-6.99,32.38c-8.84,3.69-17.12,8.56-24.62,14.4l-31.16-10.04c-4.92-1.59-10.41-.23-13.71,3.86-4.53,5.56-8.67,11.45-12.36,17.69l-2.63,4.59c-3.41,6.24-6.38,12.7-8.84,19.45-1.79,4.93-.28,10.43,3.58,13.95l24.23,22.34c-.62,4.71-.95,9.53-.95,14.4s.34,9.7.95,14.46l-24.23,22.34c-3.86,3.52-5.37,9.02-3.58,13.95,2.46,6.75,5.43,13.21,8.84,19.45l2.63,4.59s.02.02.02.04h83.56c-26.52-14.37-44.57-42.69-44.57-75.3,0-47.13,37.7-85.34,84.2-85.34s84.2,38.21,84.2,85.34c0,32.61-18.05,60.93-44.57,75.3h82.65s.04-.06.06-.09l2.63-4.59c3.41-6.24,6.38-12.7,8.84-19.45,1.79-4.93.28-10.43-3.58-13.95Z"/>
  <path style="fill:#FFF;" d="M247.5,202.5c-24.85,0-45,20.15-45,45s20.15,45,45,45,45-20.15,45-45-20.15-45-45-45ZM247.91,271.93c-13.75,0-24.9-11.15-24.9-24.9s11.15-24.9,24.9-24.9,24.9,11.15,24.9,24.9-11.15,24.9-24.9,24.9Z"/>
</svg>
